<svg width="272" height="143" viewBox="0 0 272 143" fill="none" xmlns="http://www.w3.org/2000/svg">
<path d="M0 17.9823C12.4309 17.9823 36.4641 11.9491 53.0387 29.7862C69.6133 47.6233 79.2818 46.3118 100 46.3118" stroke="#5DFDCB" stroke-opacity="0.75" stroke-width="33"/>
<path d="M100 47.3157C87.5691 47.3157 63.5359 41.2825 46.9613 59.1195C30.3867 76.9566 20.7182 75.6451 1.19209e-06 75.6451" stroke="#7CC6FE" stroke-opacity="0.75" stroke-width="33"/>
<path d="M0 76.649C12.4309 76.649 36.4641 70.6158 53.0387 88.4529C69.6133 106.29 79.2818 104.978 100 104.978" stroke="#8789C0" stroke-opacity="0.75" stroke-width="33"/>
<path d="M126.642 44.8182V71.9205C126.642 73.6761 125.875 74.5114 123.591 74.5114C123.267 74.5114 122.977 74.4943 122.568 74.4432V80.767C123.182 80.8011 123.659 80.8182 124.256 80.8182C130.784 80.8182 134.977 78.5682 134.977 72.0909V44.8182H126.642ZM130.801 41.767C133.17 41.767 135.08 39.9773 135.08 37.7784C135.08 35.5795 133.17 33.8068 130.801 33.8068C128.449 33.8068 126.523 35.5795 126.523 37.7784C126.523 39.9773 128.449 41.767 130.801 41.767ZM152.504 71.4943C160.737 71.4943 165.732 66.0568 165.732 57.9943C165.732 49.9148 160.737 44.4773 152.504 44.4773C144.271 44.4773 139.277 49.9148 139.277 57.9943C139.277 66.0568 144.271 71.4943 152.504 71.4943ZM152.555 65.2045C149.47 65.2045 147.766 62.2727 147.766 57.9432C147.766 53.5966 149.47 50.6477 152.555 50.6477C155.538 50.6477 157.243 53.5966 157.243 57.9432C157.243 62.2727 155.538 65.2045 152.555 65.2045ZM170.001 71H178.251V66.7557H178.507C179.564 69.1761 181.916 71.375 185.871 71.375C191.666 71.375 196.337 66.8409 196.337 57.9261C196.337 48.6875 191.393 44.4773 185.922 44.4773C181.78 44.4773 179.513 46.8977 178.507 49.3011H178.337V36.0909H170.001V71ZM178.166 57.9091C178.166 53.6307 179.939 50.9886 182.99 50.9886C186.075 50.9886 187.78 53.6989 187.78 57.9091C187.78 62.1364 186.075 64.8807 182.99 64.8807C179.939 64.8807 178.166 62.1534 178.166 57.9091ZM141.42 92.8182H136.699V86.5455H128.364V92.8182H124.903V98.9545H128.364V111.688C128.312 116.989 131.756 119.648 137.636 119.375C139.648 119.273 141.097 118.864 141.898 118.625L140.636 112.608C140.278 112.693 139.443 112.864 138.812 112.864C137.466 112.864 136.699 112.318 136.699 110.767V98.9545H141.42V92.8182ZM145.673 119H154.009V104.784C154.009 101.665 156.224 99.5682 159.207 99.5682C160.196 99.5682 161.679 99.7386 162.48 100.011V92.767C161.781 92.5795 160.912 92.4602 160.145 92.4602C157.281 92.4602 154.997 94.1307 154.043 97.5909H153.77V92.8182H145.673V119ZM172.273 119.443C175.92 119.443 178.443 118.028 179.875 115.352H180.08V119H187.92V101.205C187.92 95.6648 182.994 92.4773 176.33 92.4773C169.29 92.4773 165.301 96.0227 164.636 100.795L172.324 101.068C172.682 99.3977 174.062 98.375 176.261 98.375C178.307 98.375 179.602 99.3636 179.602 101.119V101.205C179.602 102.807 177.864 103.148 173.398 103.54C168.097 103.983 163.665 105.943 163.665 111.739C163.665 116.92 167.261 119.443 172.273 119.443ZM174.847 113.989C172.92 113.989 171.557 113.068 171.557 111.33C171.557 109.642 172.886 108.619 175.256 108.261C176.807 108.04 178.716 107.699 179.653 107.205V109.693C179.653 112.25 177.506 113.989 174.847 113.989ZM205.239 119.494C212.602 119.494 217.17 115.216 217.392 108.739H209.602C209.295 111.517 207.625 113.034 205.341 113.034C202.409 113.034 200.5 110.562 200.5 105.909C200.5 101.29 202.426 98.8182 205.341 98.8182C207.727 98.8182 209.278 100.438 209.602 103.114H217.392C217.205 96.6705 212.5 92.4773 205.222 92.4773C196.989 92.4773 192.011 97.9659 192.011 105.994C192.011 113.989 196.955 119.494 205.239 119.494ZM221.658 119H229.993V111.142L231.68 109.097L237.919 119H247.55L237.885 104.222L247.175 92.8182H237.732L230.368 102.193H229.993V84.0909H221.658V119ZM250.158 119H258.493V104.784C258.493 101.665 260.709 99.5682 263.692 99.5682C264.68 99.5682 266.163 99.7386 266.964 100.011V92.767C266.266 92.5795 265.396 92.4602 264.629 92.4602C261.766 92.4602 259.482 94.1307 258.527 97.5909H258.254V92.8182H250.158V119Z" fill="black" fill-opacity="0.7"/>
</svg>
