<svg width="272" height="145" viewBox="0 0 272 145" fill="none" xmlns="http://www.w3.org/2000/svg">
<path d="M0 17.9712C12.4309 17.9712 36.4641 12.0065 53.0387 29.6409C69.6133 47.2753 79.2818 45.9787 100 45.9787" stroke="#5DFDCB" stroke-opacity="0.75" stroke-width="33"/>
<path d="M100 46.9712C87.5691 46.9712 63.5359 41.0065 46.9613 58.6409C30.3867 76.2753 20.7182 74.9787 1.19209e-06 74.9787" stroke="#7CC6FE" stroke-opacity="0.75" stroke-width="33"/>
<path d="M0 75.9712C12.4309 75.9712 36.4641 70.0065 53.0387 87.6409C69.6133 105.275 79.2818 103.979 100 103.979" stroke="#8789C0" stroke-opacity="0.75" stroke-width="33"/>
<path d="M126.642 46.8182V73.9205C126.642 75.6761 125.875 76.5114 123.591 76.5114C123.267 76.5114 122.977 76.4943 122.568 76.4432V82.767C123.182 82.8011 123.659 82.8182 124.256 82.8182C130.784 82.8182 134.977 80.5682 134.977 74.0909V46.8182H126.642ZM130.801 43.767C133.17 43.767 135.08 41.9773 135.08 39.7784C135.08 37.5795 133.17 35.8068 130.801 35.8068C128.449 35.8068 126.523 37.5795 126.523 39.7784C126.523 41.9773 128.449 43.767 130.801 43.767ZM152.504 73.4943C160.737 73.4943 165.732 68.0568 165.732 59.9943C165.732 51.9148 160.737 46.4773 152.504 46.4773C144.271 46.4773 139.277 51.9148 139.277 59.9943C139.277 68.0568 144.271 73.4943 152.504 73.4943ZM152.555 67.2045C149.47 67.2045 147.766 64.2727 147.766 59.9432C147.766 55.5966 149.47 52.6477 152.555 52.6477C155.538 52.6477 157.243 55.5966 157.243 59.9432C157.243 64.2727 155.538 67.2045 152.555 67.2045ZM170.001 73H178.251V68.7557H178.507C179.564 71.1761 181.916 73.375 185.871 73.375C191.666 73.375 196.337 68.8409 196.337 59.9261C196.337 50.6875 191.393 46.4773 185.922 46.4773C181.78 46.4773 179.513 48.8977 178.507 51.3011H178.337V38.0909H170.001V73ZM178.166 59.9091C178.166 55.6307 179.939 52.9886 182.99 52.9886C186.075 52.9886 187.78 55.6989 187.78 59.9091C187.78 64.1364 186.075 66.8807 182.99 66.8807C179.939 66.8807 178.166 64.1534 178.166 59.9091ZM141.42 94.8182H136.699V88.5455H128.364V94.8182H124.903V100.955H128.364V113.688C128.312 118.989 131.756 121.648 137.636 121.375C139.648 121.273 141.097 120.864 141.898 120.625L140.636 114.608C140.278 114.693 139.443 114.864 138.812 114.864C137.466 114.864 136.699 114.318 136.699 112.767V100.955H141.42V94.8182ZM145.673 121H154.009V106.784C154.009 103.665 156.224 101.568 159.207 101.568C160.196 101.568 161.679 101.739 162.48 102.011V94.767C161.781 94.5795 160.912 94.4602 160.145 94.4602C157.281 94.4602 154.997 96.1307 154.043 99.5909H153.77V94.8182H145.673V121ZM172.273 121.443C175.92 121.443 178.443 120.028 179.875 117.352H180.08V121H187.92V103.205C187.92 97.6648 182.994 94.4773 176.33 94.4773C169.29 94.4773 165.301 98.0227 164.636 102.795L172.324 103.068C172.682 101.398 174.062 100.375 176.261 100.375C178.307 100.375 179.602 101.364 179.602 103.119V103.205C179.602 104.807 177.864 105.148 173.398 105.54C168.097 105.983 163.665 107.943 163.665 113.739C163.665 118.92 167.261 121.443 172.273 121.443ZM174.847 115.989C172.92 115.989 171.557 115.068 171.557 113.33C171.557 111.642 172.886 110.619 175.256 110.261C176.807 110.04 178.716 109.699 179.653 109.205V111.693C179.653 114.25 177.506 115.989 174.847 115.989ZM205.239 121.494C212.602 121.494 217.17 117.216 217.392 110.739H209.602C209.295 113.517 207.625 115.034 205.341 115.034C202.409 115.034 200.5 112.562 200.5 107.909C200.5 103.29 202.426 100.818 205.341 100.818C207.727 100.818 209.278 102.438 209.602 105.114H217.392C217.205 98.6705 212.5 94.4773 205.222 94.4773C196.989 94.4773 192.011 99.9659 192.011 107.994C192.011 115.989 196.955 121.494 205.239 121.494ZM221.658 121H229.993V113.142L231.68 111.097L237.919 121H247.55L237.885 106.222L247.175 94.8182H237.732L230.368 104.193H229.993V86.0909H221.658V121ZM250.158 121H258.493V106.784C258.493 103.665 260.709 101.568 263.692 101.568C264.68 101.568 266.163 101.739 266.964 102.011V94.767C266.266 94.5795 265.396 94.4602 264.629 94.4602C261.766 94.4602 259.482 96.1307 258.527 99.5909H258.254V94.8182H250.158V121Z" fill="white" fill-opacity="0.7"/>
</svg>
